<svg xmlns="http://www.w3.org/2000/svg" viewBox="0 0 128 128"><defs><linearGradient id="ivory" x1="0" y1="0" x2="1" y2="1"><stop stop-color="#fffdf4"/><stop offset="1" stop-color="#d2cbb8"/></linearGradient><linearGradient id="gold" x1="0" y1="0" x2="1" y2="1"><stop stop-color="#f6e4ab"/><stop offset="1" stop-color="#b9944f"/></linearGradient><linearGradient id="green" x1="0" y1="0" x2="1" y2="1"><stop stop-color="#c0d5a4"/><stop offset="1" stop-color="#709475"/></linearGradient><linearGradient id="blue" x1="0" y1="0" x2="1" y2="1"><stop stop-color="#d5eeec"/><stop offset="1" stop-color="#78a5b9"/></linearGradient><linearGradient id="purple" x1="0" y1="0" x2="1" y2="1"><stop stop-color="#e7d9ec"/><stop offset="1" stop-color="#a691b9"/></linearGradient><linearGradient id="red" x1="0" y1="0" x2="1" y2="1"><stop stop-color="#e1a087"/><stop offset="1" stop-color="#b4574d"/></linearGradient></defs><ellipse cx="64" cy="112" rx="34" ry="5" fill="#6d8279" opacity=".09"/><ellipse cx="65" cy="103" rx="23" ry="5" fill="url(#gold)"/><path d="M65 95V105" stroke="#b49b68" stroke-width="4"/><path d="M64 21L77 46L106 51L85 72L89 101L64 87L38 100L43 71L22 50L51 46Z" fill="url(#purple)" stroke="#a792b8"/><path d="M64 21V63L22 50M64 63L89 101M64 63L106 51" stroke="#dfd1e4" fill="none"/></svg>